<?xml version="1.0" standalone="no"?><!DOCTYPE svg PUBLIC "-//W3C//DTD SVG 1.1//EN" "http://www.w3.org/Graphics/SVG/1.1/DTD/svg11.dtd"><svg t="1743412816895" class="icon" viewBox="0 0 1024 1024" version="1.1" xmlns="http://www.w3.org/2000/svg" p-id="16519" xmlns:xlink="http://www.w3.org/1999/xlink" width="200" height="200"><path d="M405.504 743.424v53.248l-51.2 52.224c-9.216 9.216-3.072 24.576 10.24 24.576h295.936c13.312 0 19.456-15.36 10.24-24.576l-51.2-52.224v-53.248H405.504z" fill="#057CDD" p-id="16520"></path><path d="M846.848 149.504H177.152c-39.936 0-72.704 32.768-72.704 72.704v457.728c0 39.936 32.768 72.704 72.704 72.704h669.696c39.936 0 72.704-32.768 72.704-72.704V223.232c0-40.96-32.768-73.728-72.704-73.728zM470.016 442.368c0 14.336-11.264 25.6-25.6 25.6h-52.224v52.224c0 14.336-11.264 25.6-25.6 25.6h-1.024c-14.336 0-25.6-11.264-25.6-25.6v-52.224h-52.224c-14.336 0-25.6-11.264-25.6-25.6v-1.024c0-14.336 11.264-25.6 25.6-25.6h52.224v-52.224c0-14.336 11.264-25.6 25.6-25.6h1.024c14.336 0 25.6 11.264 25.6 25.6v52.224h52.224c13.312 1.024 25.6 12.288 25.6 26.624z m188.416 103.424c-57.344 0-104.448-46.08-104.448-104.448S601.088 337.92 658.432 337.92s104.448 46.08 104.448 104.448-47.104 103.424-104.448 103.424z" fill="#008AFD" p-id="16521"></path></svg>